<mxfile host="app.diagrams.net" modified="2024-06-19T08:52:14.328Z" agent="Mozilla/5.0 (Windows NT 10.0; Win64; x64) AppleWebKit/537.36 (KHTML, like Gecko) Chrome/125.0.0.0 Safari/537.36" etag="eFQXED62OUq01ql3GvgG" version="24.5.4" type="device">
  <diagram name="Halaman-1" id="qZEX9r17VSvdaLq3SQqc">
    <mxGraphModel dx="1358" dy="549" grid="1" gridSize="10" guides="1" tooltips="1" connect="1" arrows="1" fold="1" page="1" pageScale="1" pageWidth="827" pageHeight="1169" math="0" shadow="0">
      <root>
        <mxCell id="0" />
        <mxCell id="1" parent="0" />
        <mxCell id="7Zbi0GaOsBWuneSq0yRR-12" style="edgeStyle=orthogonalEdgeStyle;rounded=0;orthogonalLoop=1;jettySize=auto;html=1;exitX=1;exitY=0.5;exitDx=0;exitDy=0;" edge="1" parent="1" source="7Zbi0GaOsBWuneSq0yRR-1" target="7Zbi0GaOsBWuneSq0yRR-11">
          <mxGeometry relative="1" as="geometry" />
        </mxCell>
        <mxCell id="7Zbi0GaOsBWuneSq0yRR-1" value="Artikel" style="shape=document;whiteSpace=wrap;html=1;boundedLbl=1;" vertex="1" parent="1">
          <mxGeometry x="120" y="130" width="120" height="80" as="geometry" />
        </mxCell>
        <mxCell id="7Zbi0GaOsBWuneSq0yRR-6" style="edgeStyle=orthogonalEdgeStyle;rounded=0;orthogonalLoop=1;jettySize=auto;html=1;exitX=1;exitY=0.5;exitDx=0;exitDy=0;" edge="1" parent="1" source="7Zbi0GaOsBWuneSq0yRR-3" target="7Zbi0GaOsBWuneSq0yRR-5">
          <mxGeometry relative="1" as="geometry" />
        </mxCell>
        <mxCell id="7Zbi0GaOsBWuneSq0yRR-3" value="Praproses data" style="rounded=0;whiteSpace=wrap;html=1;" vertex="1" parent="1">
          <mxGeometry x="330" y="30" width="120" height="60" as="geometry" />
        </mxCell>
        <mxCell id="7Zbi0GaOsBWuneSq0yRR-10" style="edgeStyle=orthogonalEdgeStyle;rounded=0;orthogonalLoop=1;jettySize=auto;html=1;exitX=1;exitY=0.5;exitDx=0;exitDy=0;" edge="1" parent="1" source="7Zbi0GaOsBWuneSq0yRR-5" target="7Zbi0GaOsBWuneSq0yRR-9">
          <mxGeometry relative="1" as="geometry" />
        </mxCell>
        <mxCell id="7Zbi0GaOsBWuneSq0yRR-5" value="Pelatihan model" style="rounded=0;whiteSpace=wrap;html=1;" vertex="1" parent="1">
          <mxGeometry x="540" y="30" width="120" height="60" as="geometry" />
        </mxCell>
        <mxCell id="7Zbi0GaOsBWuneSq0yRR-8" style="edgeStyle=orthogonalEdgeStyle;rounded=0;orthogonalLoop=1;jettySize=auto;html=1;" edge="1" parent="1" source="7Zbi0GaOsBWuneSq0yRR-14" target="7Zbi0GaOsBWuneSq0yRR-3">
          <mxGeometry relative="1" as="geometry">
            <mxPoint x="230" y="60" as="sourcePoint" />
          </mxGeometry>
        </mxCell>
        <mxCell id="7Zbi0GaOsBWuneSq0yRR-20" style="edgeStyle=orthogonalEdgeStyle;rounded=0;orthogonalLoop=1;jettySize=auto;html=1;" edge="1" parent="1" source="7Zbi0GaOsBWuneSq0yRR-9" target="7Zbi0GaOsBWuneSq0yRR-18">
          <mxGeometry relative="1" as="geometry" />
        </mxCell>
        <mxCell id="7Zbi0GaOsBWuneSq0yRR-34" style="edgeStyle=orthogonalEdgeStyle;rounded=0;orthogonalLoop=1;jettySize=auto;html=1;exitX=0;exitY=0.75;exitDx=0;exitDy=0;entryX=0.5;entryY=0;entryDx=0;entryDy=0;" edge="1" parent="1" source="7Zbi0GaOsBWuneSq0yRR-9" target="7Zbi0GaOsBWuneSq0yRR-27">
          <mxGeometry relative="1" as="geometry">
            <Array as="points">
              <mxPoint x="680" y="80" />
              <mxPoint x="680" y="240" />
              <mxPoint x="615" y="240" />
            </Array>
          </mxGeometry>
        </mxCell>
        <mxCell id="7Zbi0GaOsBWuneSq0yRR-9" value="Model klasifikasi CEFR" style="shape=document;whiteSpace=wrap;html=1;boundedLbl=1;" vertex="1" parent="1">
          <mxGeometry x="750" y="20" width="120" height="80" as="geometry" />
        </mxCell>
        <mxCell id="7Zbi0GaOsBWuneSq0yRR-16" style="edgeStyle=orthogonalEdgeStyle;rounded=0;orthogonalLoop=1;jettySize=auto;html=1;exitX=1;exitY=0.5;exitDx=0;exitDy=0;" edge="1" parent="1" source="7Zbi0GaOsBWuneSq0yRR-11" target="7Zbi0GaOsBWuneSq0yRR-15">
          <mxGeometry relative="1" as="geometry" />
        </mxCell>
        <mxCell id="7Zbi0GaOsBWuneSq0yRR-11" value="Question Generation" style="rounded=0;whiteSpace=wrap;html=1;" vertex="1" parent="1">
          <mxGeometry x="330" y="140" width="120" height="60" as="geometry" />
        </mxCell>
        <mxCell id="7Zbi0GaOsBWuneSq0yRR-14" value="Dataset CEFR" style="shape=document;whiteSpace=wrap;html=1;boundedLbl=1;" vertex="1" parent="1">
          <mxGeometry x="120" y="20" width="120" height="80" as="geometry" />
        </mxCell>
        <mxCell id="7Zbi0GaOsBWuneSq0yRR-19" style="edgeStyle=orthogonalEdgeStyle;rounded=0;orthogonalLoop=1;jettySize=auto;html=1;exitX=1;exitY=0.5;exitDx=0;exitDy=0;" edge="1" parent="1" source="7Zbi0GaOsBWuneSq0yRR-15" target="7Zbi0GaOsBWuneSq0yRR-18">
          <mxGeometry relative="1" as="geometry" />
        </mxCell>
        <mxCell id="7Zbi0GaOsBWuneSq0yRR-15" value="Soal" style="shape=parallelogram;perimeter=parallelogramPerimeter;whiteSpace=wrap;html=1;fixedSize=1;" vertex="1" parent="1">
          <mxGeometry x="530" y="140" width="120" height="60" as="geometry" />
        </mxCell>
        <mxCell id="7Zbi0GaOsBWuneSq0yRR-17" value="Database" style="shape=cylinder3;whiteSpace=wrap;html=1;boundedLbl=1;backgroundOutline=1;size=15;" vertex="1" parent="1">
          <mxGeometry x="960" y="260" width="60" height="80" as="geometry" />
        </mxCell>
        <mxCell id="7Zbi0GaOsBWuneSq0yRR-25" style="edgeStyle=orthogonalEdgeStyle;rounded=0;orthogonalLoop=1;jettySize=auto;html=1;exitX=1;exitY=0.5;exitDx=0;exitDy=0;" edge="1" parent="1" source="7Zbi0GaOsBWuneSq0yRR-18" target="7Zbi0GaOsBWuneSq0yRR-24">
          <mxGeometry relative="1" as="geometry" />
        </mxCell>
        <mxCell id="7Zbi0GaOsBWuneSq0yRR-18" value="Prediksi level&amp;nbsp;&lt;div&gt;CEFR soal&lt;/div&gt;" style="rhombus;whiteSpace=wrap;html=1;" vertex="1" parent="1">
          <mxGeometry x="745" y="130" width="130" height="80" as="geometry" />
        </mxCell>
        <mxCell id="7Zbi0GaOsBWuneSq0yRR-26" style="edgeStyle=orthogonalEdgeStyle;rounded=0;orthogonalLoop=1;jettySize=auto;html=1;exitX=0.5;exitY=1;exitDx=0;exitDy=0;" edge="1" parent="1" source="7Zbi0GaOsBWuneSq0yRR-24" target="7Zbi0GaOsBWuneSq0yRR-17">
          <mxGeometry relative="1" as="geometry" />
        </mxCell>
        <mxCell id="7Zbi0GaOsBWuneSq0yRR-24" value="Soal berlabel level CEFR" style="shape=parallelogram;perimeter=parallelogramPerimeter;whiteSpace=wrap;html=1;fixedSize=1;" vertex="1" parent="1">
          <mxGeometry x="930" y="140" width="120" height="60" as="geometry" />
        </mxCell>
        <mxCell id="7Zbi0GaOsBWuneSq0yRR-36" style="edgeStyle=orthogonalEdgeStyle;rounded=0;orthogonalLoop=1;jettySize=auto;html=1;exitX=1;exitY=0.5;exitDx=0;exitDy=0;entryX=0;entryY=0.5;entryDx=0;entryDy=0;" edge="1" parent="1" source="7Zbi0GaOsBWuneSq0yRR-27" target="7Zbi0GaOsBWuneSq0yRR-35">
          <mxGeometry relative="1" as="geometry" />
        </mxCell>
        <mxCell id="7Zbi0GaOsBWuneSq0yRR-27" value="Prediksi level&amp;nbsp;&lt;div&gt;CEFR siswa&lt;/div&gt;" style="rhombus;whiteSpace=wrap;html=1;" vertex="1" parent="1">
          <mxGeometry x="550" y="260" width="130" height="80" as="geometry" />
        </mxCell>
        <mxCell id="7Zbi0GaOsBWuneSq0yRR-32" style="edgeStyle=orthogonalEdgeStyle;rounded=0;orthogonalLoop=1;jettySize=auto;html=1;exitX=1;exitY=0.5;exitDx=0;exitDy=0;" edge="1" parent="1" source="7Zbi0GaOsBWuneSq0yRR-29" target="7Zbi0GaOsBWuneSq0yRR-27">
          <mxGeometry relative="1" as="geometry" />
        </mxCell>
        <mxCell id="7Zbi0GaOsBWuneSq0yRR-29" value="Teks tes&amp;nbsp;&lt;div&gt;CEFR siswa&lt;/div&gt;" style="shape=parallelogram;perimeter=parallelogramPerimeter;whiteSpace=wrap;html=1;fixedSize=1;" vertex="1" parent="1">
          <mxGeometry x="330" y="270" width="120" height="60" as="geometry" />
        </mxCell>
        <mxCell id="7Zbi0GaOsBWuneSq0yRR-31" style="edgeStyle=orthogonalEdgeStyle;rounded=0;orthogonalLoop=1;jettySize=auto;html=1;exitX=1;exitY=0.5;exitDx=0;exitDy=0;" edge="1" parent="1" source="7Zbi0GaOsBWuneSq0yRR-30" target="7Zbi0GaOsBWuneSq0yRR-29">
          <mxGeometry relative="1" as="geometry" />
        </mxCell>
        <mxCell id="7Zbi0GaOsBWuneSq0yRR-30" value="Siswa" style="rounded=0;whiteSpace=wrap;html=1;" vertex="1" parent="1">
          <mxGeometry x="130" y="270" width="120" height="60" as="geometry" />
        </mxCell>
        <mxCell id="7Zbi0GaOsBWuneSq0yRR-37" style="edgeStyle=orthogonalEdgeStyle;rounded=0;orthogonalLoop=1;jettySize=auto;html=1;exitX=1;exitY=0.5;exitDx=0;exitDy=0;" edge="1" parent="1" source="7Zbi0GaOsBWuneSq0yRR-35" target="7Zbi0GaOsBWuneSq0yRR-17">
          <mxGeometry relative="1" as="geometry" />
        </mxCell>
        <mxCell id="7Zbi0GaOsBWuneSq0yRR-35" value="level CEFR siswa" style="shape=parallelogram;perimeter=parallelogramPerimeter;whiteSpace=wrap;html=1;fixedSize=1;" vertex="1" parent="1">
          <mxGeometry x="745" y="270" width="120" height="60" as="geometry" />
        </mxCell>
      </root>
    </mxGraphModel>
  </diagram>
</mxfile>
